<svg width="824" height="829" viewBox="0 0 824 829" fill="none" xmlns="http://www.w3.org/2000/svg">
<path d="M332.501 480.918C342.21 490.938 355.502 470.918 344.002 437.897C348.502 422.897 365.633 396.006 391.002 371.417C425.502 337.979 445.711 315.417 511.502 276.417C549.502 253.892 604.855 224.897 627.002 224.897C644.002 224.897 647.002 242.917 656.002 232.917C665.003 222.918 651.002 222.918 644.002 210.918C637.446 199.68 653.002 187.917 644.002 179.918C634.171 171.18 630.002 196.917 615.002 204.418C599.968 211.934 568.065 216.456 495.502 262.917C426.002 307.417 396.003 334.417 369.502 361.917C351.022 381.094 325.502 417.418 311.502 424.418C297.502 431.418 286.002 425.397 282.502 437.897C279.002 450.397 308.002 447.418 317.002 452.418C326.002 457.418 326.105 474.316 332.501 480.918Z" fill="#D9D9D9" stroke="black" stroke-width="5"/>
<circle cx="445.502" cy="400.417" r="329" stroke="black" stroke-width="10"/>
<path d="M185.003 125.419C206.06 131.329 227.427 136.236 248.917 139.936C316.557 151.531 387.536 151.77 454.514 131.65C472.267 126.098 488.868 118.668 504.458 107.397C512.191 100.592 524.954 94.4953 524.334 74.8978C519.878 55.9626 506.258 51.5112 496.55 46.2752C491.444 43.9866 486.105 42.4248 480.776 41.4679C437.142 35.4208 399.237 48.9965 364.526 65.0063C329.804 82.5251 299.484 101.343 269.265 131.369C258.434 144.356 248.927 160.842 250.596 181.207C252.407 202.495 270.61 215.819 285.135 220.951C325.716 232.341 362.295 225.161 398.073 209.132C400.035 207.902 402.098 206.504 404.016 204.223C405.028 202.972 405.994 201.498 406.455 199.353C406.94 197.18 406.446 194.662 405.358 192.866C402.469 187.133 395.577 179.626 387.416 178.723C379.719 177.473 372.953 178.583 366.402 179.625C353.324 181.94 340.857 185.327 328.38 188.674C273.471 205.941 220.945 229.621 181.236 279.215C177.172 285.441 173.535 292.075 170.712 299.508C167.282 308.976 164.193 320.542 168.54 333.839C173.039 347.542 186.082 355.294 196.08 358.041C237.599 366.617 270.639 350.516 300.564 332.702C319.562 320.502 336.595 304.978 348.502 286.417C332.454 301.471 313.635 312.318 294.139 320.548C264.631 332.653 228.925 341.321 203.924 333.794C197.592 331.465 194.634 328.509 193.773 325.356C192.647 322.014 193.429 315.583 195.973 309.041C197.902 303.938 200.64 298.672 203.768 293.62C232.751 254.738 282.94 221.504 332.627 202.163C344.592 197.891 356.666 193.702 368.642 190.901C374.546 189.567 380.726 188.519 385.692 189.188C390.632 189.789 393.485 192.611 396.648 197.972C396.66 197.985 396.613 197.892 396.592 197.752C396.567 197.609 396.58 197.431 396.6 197.36C396.648 197.203 396.601 197.461 396.259 197.874C395.634 198.669 394.276 199.737 392.835 200.614C363.108 214.766 320.927 217.051 292.871 203.886C267.524 191.234 273.178 169.12 291.739 152.912C316.687 134.21 350.979 116.276 381.981 100.997C413.331 86.1229 446.474 69.4247 477.083 70.2318C480.717 70.4251 484.188 70.8369 487.456 71.5608C495.888 73.3111 503.64 77.497 504.255 78.7688C506.569 79.9548 501.51 89.5545 494.552 94.8324C482.015 105.123 466.197 113.412 450.493 119.187C386.995 142.009 317.136 145.194 249.379 136.819C227.852 134.155 206.326 130.286 185.003 125.419Z" fill="#00A36C"/>
<path d="M445.502 617.418C449.924 629.937 455.657 642.191 462.94 653.803C487.837 696.375 543.76 730.147 601.371 722.377C614.905 720.807 627.786 716.656 639.367 710.754C672.544 693.118 696.828 662.668 701.358 622.172C706.854 566.702 666.666 526.906 636.659 499.845C632.551 496.012 628.421 492.305 624.347 488.619C592.897 462.098 571.177 424.71 581.084 398.417C583.465 386.841 586.692 382.85 590.804 377.001C594.733 371.645 601.376 365.545 610.156 359.571C623.687 349.418 649.707 341.746 675.998 336.571C688.182 334.471 700.949 331.361 714.002 332.88C704.913 322.069 691.813 315.834 679.208 310.209C651.087 299.014 619.329 291.956 582.848 306.189C567.618 312.518 551.732 322.42 539.463 338.79C526.004 355.899 521.956 381.37 524.92 398.417C531.85 458.137 585.199 476.67 612.272 501.969C616.177 505.501 619.893 509.166 623.345 512.991C651.814 543.269 665.236 582.926 650.646 612.663C643.377 627.809 625.416 642.844 608.961 651.051C603.193 653.988 597.375 656.141 591.633 657.458C557.145 665.209 518.84 659.475 478.434 637.599C467.46 631.754 456.453 624.929 445.502 617.418Z" fill="#E07A5F"/>
<path d="M215.186 707.917C227.245 724.586 256.186 733.417 254.686 787.417C245.02 767.084 235.686 750.417 215.186 735.417C186.088 714.126 175.686 698.417 183.186 684.417C191.245 669.374 154.186 695.298 154.186 735.417C137.186 722.417 145.186 686.917 154.186 677.917C163.186 668.918 186.686 634.917 177.686 622.417C173.596 616.737 163.186 611.417 154.186 597.917C144.102 582.791 102.186 606.917 102.186 604.917C102.186 603.772 88.4073 587.409 79.0767 576.809C76.764 575.258 74.7592 573.46 73.1862 571.417C67.6323 564.204 72.1171 568.903 79.0767 576.809C95.8779 588.08 128.928 586.361 130.686 571.417C132.686 554.417 4.68623 552.917 53.6862 552.917C102.686 552.917 99.1862 501.917 102.186 526.417C105.186 550.917 133.463 539.487 146.186 552.917C155.186 562.417 139.686 514.417 163.186 491.417C162.686 466.917 105.686 446.418 88.1862 435.917C94.6862 438.917 111.186 427.417 120.686 423.417C130.186 419.417 73.1862 399.917 73.1862 348.417C78.6862 394.917 110.186 403.417 146.186 415.417C182.186 427.417 196.186 461.917 198.186 459.417C200.186 456.917 205.186 453.417 225.686 446.418C246.186 439.418 214.502 393.417 235.002 415.417C253.802 435.593 279.502 397.917 272.186 415.417C264.272 434.348 260.686 453.417 272.186 453.417C283.686 453.417 308.686 465.917 334.186 491.417C359.686 516.917 394.686 465.918 394.686 472.917C394.686 485.447 396.686 488.417 386.186 497.417C377.786 504.617 410.186 495.917 438.186 491.417C423.186 510.417 375.086 516.417 370.686 526.417C365.186 538.917 370.186 544.917 386.186 552.917C393.466 556.558 358.174 549.6 370.686 571.417C379.002 585.917 336.002 530.917 341.002 552.917C346.002 574.917 316.37 618.683 310.686 622.417C293.186 633.917 318.978 660.478 353.686 680.417C377.186 693.917 303.186 667.917 292.186 653.417C283.12 641.467 272.42 653.417 254.686 653.417C241.186 653.417 225.686 646.917 225.686 646.917C225.686 646.917 198.186 684.417 215.186 707.917Z" fill="#D9D9D9"/>
<path d="M254.686 787.417C256.186 733.417 227.245 724.586 215.186 707.917C198.186 684.417 225.686 646.917 225.686 646.917C225.686 646.917 241.186 653.417 254.686 653.417C272.42 653.417 283.12 641.467 292.186 653.417C303.186 667.917 377.186 693.917 353.686 680.417C318.978 660.478 293.186 633.917 310.686 622.417C316.37 618.683 346.002 574.917 341.002 552.917C336.002 530.917 379.002 585.917 370.686 571.417C358.174 549.6 393.466 556.558 386.186 552.917C370.186 544.917 365.186 538.917 370.686 526.417C375.086 516.417 423.186 510.417 438.186 491.417C410.186 495.917 377.786 504.617 386.186 497.417C396.686 488.417 394.686 485.447 394.686 472.917C394.686 465.918 359.686 516.917 334.186 491.417C308.686 465.917 283.686 453.417 272.186 453.417C260.686 453.417 264.272 434.348 272.186 415.417C279.502 397.917 253.802 435.593 235.002 415.417C214.502 393.417 246.186 439.418 225.686 446.418C205.186 453.417 200.186 456.917 198.186 459.417C196.186 461.917 182.186 427.417 146.186 415.417C110.186 403.417 78.6862 394.917 73.1862 348.417C73.1862 399.917 130.186 419.417 120.686 423.417C111.186 427.417 94.6862 438.917 88.1862 435.917C105.686 446.418 162.686 466.917 163.186 491.417C139.686 514.417 155.186 562.417 146.186 552.917C133.463 539.487 105.186 550.917 102.186 526.417C99.1862 501.917 102.686 552.917 53.6862 552.917C4.68623 552.917 132.686 554.417 130.686 571.417C128.686 588.417 86.1862 588.302 73.1862 571.417C60.1863 554.533 102.186 602.917 102.186 604.917C102.186 606.917 144.102 582.791 154.186 597.917C163.186 611.417 173.596 616.737 177.686 622.417C186.686 634.917 163.186 668.918 154.186 677.917C145.186 686.917 137.186 722.417 154.186 735.417C154.186 695.298 191.245 669.374 183.186 684.417C175.686 698.417 186.088 714.126 215.186 735.417C235.686 750.417 245.02 767.084 254.686 787.417Z" stroke="black" stroke-width="5"/>
<path d="M639.502 160.917C635.728 160.917 618.002 154.419 623.502 124.917C626.335 133.751 629.702 149.417 636.502 149.417C645.002 149.417 651.574 150.558 657.501 163.417C660.729 170.419 658.122 143.32 680.501 137.918C695.001 134.418 679.001 86.9183 683.501 100.917C686.019 108.751 703.404 95.557 711.02 89.1795C711.798 88.4318 712.624 87.6778 713.501 86.9177C715.749 84.97 714.278 86.4508 711.02 89.1795C686.013 113.211 710.911 130.801 708.001 139.529C705.699 146.437 702.145 146.596 701.378 146.545C703.131 146.741 719.845 148.737 726.001 154.419C731.298 159.308 738.001 176.118 738.001 195.419C738.001 204.809 784.001 166.419 781.001 170.419C767.585 188.307 767.138 187.419 770.001 195.419C787.001 242.919 776.001 211.029 762.728 211.029C754.126 211.029 754.228 208.529 746.228 213.029C738.228 217.529 750.728 250.529 740.728 235.029C736.858 229.029 733.728 220.529 729.728 229.029C725.728 237.529 700.728 239.029 690.228 239.029C679.728 239.029 679.729 248.529 673.729 277.529C671.729 263.529 664.229 257.029 664.229 250.529C664.229 244.029 665.91 243.029 669.729 237.029C676.729 226.029 666.258 221.194 657.501 211.029C645.775 197.417 653.502 175.417 653.502 175.417C653.502 175.417 650.051 160.917 639.502 160.917Z" fill="#D9D9D9"/>
<path d="M623.502 124.917C618.002 154.419 635.728 160.917 639.502 160.917C650.051 160.917 653.502 175.417 653.502 175.417C653.502 175.417 645.775 197.417 657.501 211.029C666.258 221.194 676.729 226.029 669.729 237.029C665.91 243.029 664.229 244.029 664.229 250.529C664.229 257.029 671.729 263.529 673.729 277.529C679.729 248.529 679.728 239.029 690.228 239.029C700.728 239.029 725.728 237.529 729.728 229.029C733.728 220.529 736.858 229.029 740.728 235.029C750.728 250.529 738.228 217.529 746.228 213.029C754.228 208.529 754.126 211.029 762.728 211.029C776.001 211.029 787.001 242.919 770.001 195.419C767.138 187.419 767.585 188.307 781.001 170.419C784.001 166.419 738.001 204.809 738.001 195.419C738.001 176.119 731.298 159.308 726.001 154.419C719.501 148.419 701.228 146.529 701.228 146.529C701.228 146.529 705.408 147.309 708.001 139.529C711.001 130.529 684.437 112.107 713.501 86.9177C721.001 80.4175 687.097 112.103 683.501 100.917C679.001 86.9183 695.001 134.418 680.501 137.918C658.122 143.32 660.729 170.419 657.501 163.417C651.574 150.558 645.002 149.417 636.502 149.417C629.702 149.417 626.335 133.751 623.502 124.917Z" stroke="black" stroke-width="5"/>
<path d="M303.502 547.917C303.502 582.988 275.072 611.417 240.002 611.417C204.932 611.417 176.502 582.988 176.502 547.917C176.502 512.847 204.932 484.417 240.002 484.417C275.072 484.417 303.502 512.847 303.502 547.917Z" fill="black"/>
<circle cx="696.502" cy="189.417" r="30" fill="black"/>
<rect x="42.5021" y="19.1954" width="59.375" height="30" rx="3" fill="#444444"/>
<rect x="43.0021" y="19.6954" width="58.375" height="29" rx="2.5" stroke="white" stroke-opacity="0.0980392"/>
<path d="M53.8458 31.1954C53.799 30.7996 53.6088 30.4923 53.2755 30.2736C52.9422 30.0548 52.5333 29.9454 52.049 29.9454C51.6948 29.9454 51.3849 30.0027 51.1193 30.1173C50.8562 30.2319 50.6505 30.3894 50.5021 30.59C50.3562 30.7905 50.2833 31.0184 50.2833 31.2736C50.2833 31.4871 50.3341 31.6707 50.4357 31.8243C50.5398 31.9754 50.6726 32.1017 50.8341 32.2032C50.9956 32.3022 51.1648 32.3842 51.3419 32.4493C51.519 32.5118 51.6818 32.5626 51.8302 32.6017L52.6427 32.8204C52.851 32.8751 53.0828 32.9506 53.338 33.047C53.5958 33.1434 53.8419 33.2749 54.0763 33.4415C54.3133 33.6056 54.5086 33.8165 54.6622 34.0743C54.8159 34.3322 54.8927 34.6486 54.8927 35.0236C54.8927 35.4559 54.7794 35.8465 54.5529 36.1954C54.3289 36.5444 54.0008 36.8217 53.5685 37.0275C53.1388 37.2332 52.6167 37.3361 52.0021 37.3361C51.4292 37.3361 50.9331 37.2436 50.5138 37.0587C50.0971 36.8738 49.769 36.616 49.5294 36.2853C49.2924 35.9545 49.1583 35.5704 49.1271 35.1329H50.1271C50.1531 35.435 50.2547 35.685 50.4318 35.8829C50.6115 36.0782 50.838 36.2241 51.1115 36.3204C51.3875 36.4142 51.6844 36.4611 52.0021 36.4611C52.3719 36.4611 52.7039 36.4012 52.9982 36.2814C53.2924 36.159 53.5255 35.9897 53.6974 35.7736C53.8693 35.5548 53.9552 35.2996 53.9552 35.0079C53.9552 34.7423 53.881 34.5262 53.7325 34.3595C53.5841 34.1928 53.3888 34.0574 53.1466 33.9532C52.9044 33.8491 52.6427 33.7579 52.3615 33.6798L51.3771 33.3986C50.7521 33.2189 50.2573 32.9624 49.8927 32.629C49.5281 32.2957 49.3458 31.8595 49.3458 31.3204C49.3458 30.8725 49.4669 30.4819 49.7091 30.1486C49.9539 29.8126 50.282 29.5522 50.6935 29.3673C51.1075 29.1798 51.5698 29.0861 52.0802 29.0861C52.5958 29.0861 53.0542 29.1785 53.4552 29.3634C53.8562 29.5457 54.174 29.7957 54.4083 30.1134C54.6453 30.4311 54.7703 30.7918 54.7833 31.1954H53.8458ZM58.8761 37.3204C58.298 37.3204 57.7993 37.1928 57.38 36.9376C56.9633 36.6798 56.6417 36.3204 56.4152 35.8595C56.1912 35.396 56.0792 34.8569 56.0792 34.2423C56.0792 33.6277 56.1912 33.0861 56.4152 32.6173C56.6417 32.146 56.9568 31.7788 57.3605 31.5157C57.7667 31.2501 58.2407 31.1173 58.7823 31.1173C59.0948 31.1173 59.4034 31.1694 59.7081 31.2736C60.0128 31.3777 60.2902 31.547 60.5402 31.7814C60.7902 32.0131 60.9894 32.3204 61.1378 32.7032C61.2863 33.0861 61.3605 33.5574 61.3605 34.1173V34.5079H56.7355V33.7111H60.423C60.423 33.3725 60.3553 33.0704 60.2198 32.8048C60.087 32.5392 59.8969 32.3295 59.6495 32.1759C59.4047 32.0223 59.1157 31.9454 58.7823 31.9454C58.4152 31.9454 58.0975 32.0366 57.8292 32.2189C57.5636 32.3986 57.3592 32.6329 57.2159 32.922C57.0727 33.2111 57.0011 33.521 57.0011 33.8517V34.3829C57.0011 34.8361 57.0792 35.2202 57.2355 35.5353C57.3943 35.8478 57.6144 36.0861 57.8956 36.2501C58.1769 36.4116 58.5037 36.4923 58.8761 36.4923C59.1183 36.4923 59.337 36.4585 59.5323 36.3907C59.7303 36.3204 59.9008 36.2163 60.0441 36.0782C60.1873 35.9376 60.298 35.7631 60.3761 35.5548L61.2667 35.8048C61.173 36.1069 61.0154 36.3725 60.7941 36.6017C60.5727 36.8282 60.2993 37.0053 59.9738 37.1329C59.6482 37.2579 59.2823 37.3204 58.8761 37.3204ZM65.2003 37.3204C64.6378 37.3204 64.1534 37.1876 63.7472 36.922C63.3409 36.6564 63.0284 36.2905 62.8097 35.8243C62.5909 35.3582 62.4816 34.8256 62.4816 34.2267C62.4816 33.6173 62.5935 33.0795 62.8175 32.6134C63.0441 32.1447 63.3592 31.7788 63.7628 31.5157C64.1691 31.2501 64.643 31.1173 65.1847 31.1173C65.6066 31.1173 65.9868 31.1954 66.3253 31.3517C66.6639 31.5079 66.9412 31.7267 67.1573 32.0079C67.3735 32.2892 67.5076 32.6173 67.5597 32.9923H66.6378C66.5675 32.7189 66.4113 32.4767 66.1691 32.2657C65.9295 32.0522 65.6066 31.9454 65.2003 31.9454C64.8409 31.9454 64.5258 32.0392 64.255 32.2267C63.9868 32.4116 63.7771 32.6733 63.6261 33.0118C63.4777 33.3478 63.4034 33.7423 63.4034 34.1954C63.4034 34.659 63.4764 35.0626 63.6222 35.4064C63.7706 35.7501 63.979 36.017 64.2472 36.2072C64.518 36.3973 64.8357 36.4923 65.2003 36.4923C65.4399 36.4923 65.6573 36.4506 65.8527 36.3673C66.048 36.284 66.2133 36.1642 66.3488 36.0079C66.4842 35.8517 66.5805 35.6642 66.6378 35.4454H67.5597C67.5076 35.7996 67.3787 36.1186 67.173 36.4025C66.9698 36.6837 66.7003 36.9077 66.3644 37.0743C66.031 37.2384 65.643 37.3204 65.2003 37.3204ZM71.5167 31.1954V31.9767H68.4073V31.1954H71.5167ZM69.3136 29.7579H70.2355V35.4767C70.2355 35.7371 70.2732 35.9324 70.3488 36.0626C70.4269 36.1902 70.5258 36.2762 70.6456 36.3204C70.768 36.3621 70.8969 36.3829 71.0323 36.3829C71.1339 36.3829 71.2172 36.3777 71.2823 36.3673C71.3475 36.3543 71.3995 36.3439 71.4386 36.3361L71.6261 37.1642C71.5636 37.1876 71.4764 37.2111 71.3644 37.2345C71.2524 37.2605 71.1105 37.2736 70.9386 37.2736C70.6782 37.2736 70.423 37.2176 70.173 37.1056C69.9256 36.9936 69.7198 36.823 69.5558 36.5939C69.3943 36.3647 69.3136 36.0756 69.3136 35.7267V29.7579ZM72.9034 37.1954V31.1954H73.8253V37.1954H72.9034ZM73.3722 30.1954C73.1925 30.1954 73.0376 30.1342 72.9073 30.0118C72.7797 29.8894 72.7159 29.7423 72.7159 29.5704C72.7159 29.3986 72.7797 29.2514 72.9073 29.129C73.0376 29.0066 73.1925 28.9454 73.3722 28.9454C73.5519 28.9454 73.7055 29.0066 73.8331 29.129C73.9633 29.2514 74.0284 29.3986 74.0284 29.5704C74.0284 29.7423 73.9633 29.8894 73.8331 30.0118C73.7055 30.1342 73.5519 30.1954 73.3722 30.1954ZM77.9513 37.3204C77.4096 37.3204 76.9344 37.1915 76.5255 36.9337C76.1193 36.6759 75.8016 36.3152 75.5724 35.8517C75.3458 35.3881 75.2325 34.8465 75.2325 34.2267C75.2325 33.6017 75.3458 33.0561 75.5724 32.59C75.8016 32.1238 76.1193 31.7618 76.5255 31.504C76.9344 31.2462 77.4096 31.1173 77.9513 31.1173C78.493 31.1173 78.9669 31.2462 79.3732 31.504C79.782 31.7618 80.0997 32.1238 80.3263 32.59C80.5555 33.0561 80.67 33.6017 80.67 34.2267C80.67 34.8465 80.5555 35.3881 80.3263 35.8517C80.0997 36.3152 79.782 36.6759 79.3732 36.9337C78.9669 37.1915 78.493 37.3204 77.9513 37.3204ZM77.9513 36.4923C78.3628 36.4923 78.7013 36.3868 78.9669 36.1759C79.2325 35.965 79.4292 35.6876 79.5568 35.3439C79.6844 35.0001 79.7482 34.6277 79.7482 34.2267C79.7482 33.8256 79.6844 33.4519 79.5568 33.1056C79.4292 32.7592 79.2325 32.4793 78.9669 32.2657C78.7013 32.0522 78.3628 31.9454 77.9513 31.9454C77.5398 31.9454 77.2013 32.0522 76.9357 32.2657C76.67 32.4793 76.4734 32.7592 76.3458 33.1056C76.2182 33.4519 76.1544 33.8256 76.1544 34.2267C76.1544 34.6277 76.2182 35.0001 76.3458 35.3439C76.4734 35.6876 76.67 35.965 76.9357 36.1759C77.2013 36.3868 77.5398 36.4923 77.9513 36.4923ZM82.9991 33.5861V37.1954H82.0773V31.1954H82.9679V32.1329H83.046C83.1866 31.8282 83.4002 31.5835 83.6866 31.3986C83.9731 31.2111 84.3429 31.1173 84.796 31.1173C85.2023 31.1173 85.5577 31.2006 85.8624 31.3673C86.1671 31.5314 86.4041 31.7814 86.5734 32.1173C86.7426 32.4506 86.8273 32.8725 86.8273 33.3829V37.1954H85.9054V33.4454C85.9054 32.9741 85.783 32.6069 85.5382 32.3439C85.2934 32.0782 84.9575 31.9454 84.5304 31.9454C84.2361 31.9454 83.9731 32.0092 83.7413 32.1368C83.5122 32.2644 83.3312 32.4506 83.1984 32.6954C83.0656 32.9402 82.9991 33.2371 82.9991 33.5861ZM94.4025 29.1954V37.1954H93.4337V30.2111H93.3868L91.4337 31.5079V30.5236L93.4337 29.1954H94.4025Z" fill="white"/>
</svg>
