<svg width="744" height="749" viewBox="0 0 744 749" fill="none" xmlns="http://www.w3.org/2000/svg">
<path d="M292.501 440.918C302.21 450.938 315.502 430.918 304.002 397.897C308.502 382.897 325.633 356.006 351.002 331.417C385.502 297.979 405.711 275.417 471.502 236.417C509.502 213.892 564.855 184.897 587.002 184.897C604.002 184.897 607.002 202.917 616.002 192.917C625.003 182.918 611.002 182.918 604.002 170.918C597.446 159.68 613.002 147.917 604.002 139.918C594.171 131.18 590.002 156.917 575.002 164.418C559.968 171.934 528.065 176.456 455.502 222.917C386.002 267.417 356.003 294.417 329.502 321.917C311.022 341.094 285.502 377.418 271.502 384.418C257.502 391.418 246.002 385.397 242.502 397.897C239.002 410.397 268.002 407.418 277.002 412.418C286.002 417.418 286.105 434.316 292.501 440.918Z" fill="#D9D9D9" stroke="black" stroke-width="5"/>
<circle cx="405.502" cy="360.417" r="329" stroke="black" stroke-width="10"/>
<path d="M145.003 85.4185C166.06 91.3293 187.427 96.2355 208.917 99.9357C276.557 111.531 347.536 111.77 414.514 91.6505C432.267 86.0982 448.868 78.6678 464.458 67.3968C472.191 60.5921 484.954 54.4953 484.334 34.8978C479.878 15.9626 466.258 11.5112 456.55 6.27521C451.444 3.98656 446.105 2.42483 440.776 1.46794C397.142 -4.57921 359.237 8.9965 324.526 25.0063C289.804 42.5251 259.484 61.3428 229.265 91.3694C218.434 104.356 208.927 120.842 210.596 141.207C212.407 162.495 230.61 175.819 245.135 180.951C285.716 192.341 322.295 185.161 358.073 169.132C360.035 167.902 362.098 166.504 364.016 164.223C365.028 162.972 365.994 161.498 366.455 159.353C366.94 157.18 366.446 154.662 365.358 152.866C362.469 147.133 355.577 139.626 347.416 138.723C339.719 137.473 332.953 138.583 326.402 139.625C313.324 141.94 300.857 145.327 288.38 148.674C233.471 165.941 180.945 189.621 141.236 239.215C137.172 245.441 133.535 252.075 130.712 259.508C127.282 268.976 124.193 280.542 128.54 293.839C133.039 307.542 146.082 315.294 156.08 318.041C197.599 326.617 230.639 310.516 260.564 292.702C279.562 280.502 296.595 264.978 308.502 246.417C292.454 261.471 273.635 272.318 254.139 280.548C224.631 292.653 188.925 301.321 163.924 293.794C157.592 291.465 154.634 288.509 153.773 285.356C152.647 282.014 153.429 275.583 155.973 269.041C157.902 263.938 160.64 258.672 163.768 253.62C192.751 214.738 242.94 181.504 292.627 162.163C304.592 157.891 316.666 153.702 328.642 150.901C334.546 149.567 340.726 148.519 345.692 149.188C350.632 149.789 353.485 152.611 356.648 157.972C356.66 157.985 356.613 157.892 356.592 157.752C356.567 157.609 356.58 157.431 356.6 157.36C356.648 157.203 356.601 157.461 356.259 157.874C355.634 158.669 354.276 159.737 352.835 160.614C323.108 174.766 280.927 177.051 252.871 163.886C227.524 151.234 233.178 129.12 251.739 112.912C276.687 94.2099 310.979 76.2763 341.981 60.9972C373.331 46.1229 406.474 29.4247 437.083 30.2318C440.717 30.4251 444.188 30.8369 447.456 31.5608C455.888 33.3111 463.64 37.497 464.255 38.7688C466.569 39.9548 461.51 49.5545 454.552 54.8324C442.015 65.1227 426.197 73.4119 410.493 79.1865C346.995 102.009 277.136 105.194 209.379 96.8185C187.852 94.1549 166.326 90.2857 145.003 85.4185Z" fill="#00A36C"/>
<path d="M405.502 577.418C409.924 589.937 415.657 602.191 422.94 613.803C447.837 656.375 503.76 690.147 561.371 682.377C574.905 680.807 587.786 676.656 599.367 670.754C632.544 653.118 656.828 622.668 661.358 582.172C666.854 526.702 626.666 486.906 596.659 459.845C592.551 456.012 588.421 452.305 584.347 448.619C552.897 422.098 531.177 384.71 541.084 358.417C543.465 346.841 546.692 342.85 550.804 337.001C554.733 331.645 561.376 325.545 570.156 319.571C583.687 309.418 609.707 301.746 635.998 296.571C648.182 294.471 660.949 291.361 674.002 292.88C664.913 282.069 651.813 275.834 639.208 270.209C611.087 259.014 579.329 251.956 542.848 266.189C527.618 272.518 511.732 282.42 499.463 298.79C486.004 315.899 481.956 341.37 484.92 358.417C491.85 418.137 545.199 436.67 572.272 461.969C576.177 465.501 579.893 469.166 583.345 472.991C611.814 503.269 625.236 542.926 610.646 572.663C603.377 587.809 585.416 602.844 568.961 611.051C563.193 613.988 557.375 616.141 551.633 617.458C517.145 625.209 478.84 619.475 438.434 597.599C427.46 591.754 416.453 584.929 405.502 577.418Z" fill="#E07A5F"/>
<path d="M175.186 667.917C187.245 684.586 216.186 693.417 214.686 747.417C205.02 727.084 195.686 710.417 175.186 695.417C146.088 674.126 135.686 658.417 143.186 644.417C151.245 629.374 114.186 655.298 114.186 695.417C97.1862 682.417 105.186 646.917 114.186 637.917C123.186 628.918 146.686 594.917 137.686 582.417C133.596 576.737 123.186 571.417 114.186 557.917C104.102 542.791 62.1862 566.917 62.1862 564.917C62.1862 563.772 48.4073 547.409 39.0767 536.809C36.764 535.258 34.7592 533.46 33.1862 531.417C27.6323 524.204 32.1171 528.903 39.0767 536.809C55.8779 548.08 88.9282 546.361 90.6862 531.417C92.6862 514.417 -35.3138 512.917 13.6862 512.917C62.6862 512.917 59.1862 461.917 62.1862 486.417C65.1862 510.917 93.463 499.487 106.186 512.917C115.186 522.417 99.6863 474.417 123.186 451.417C122.686 426.917 65.6862 406.418 48.1862 395.917C54.6862 398.917 71.1862 387.417 80.6862 383.417C90.1862 379.417 33.1862 359.917 33.1862 308.417C38.6862 354.917 70.1862 363.417 106.186 375.417C142.186 387.417 156.186 421.917 158.186 419.417C160.186 416.917 165.186 413.417 185.686 406.418C206.186 399.418 174.502 353.417 195.002 375.417C213.802 395.593 239.502 357.917 232.186 375.417C224.272 394.348 220.686 413.417 232.186 413.417C243.686 413.417 268.686 425.917 294.186 451.417C319.686 476.917 354.686 425.918 354.686 432.917C354.686 445.447 356.686 448.417 346.186 457.417C337.786 464.617 370.186 455.917 398.186 451.417C383.186 470.417 335.086 476.417 330.686 486.417C325.186 498.917 330.186 504.917 346.186 512.917C353.466 516.558 318.174 509.6 330.686 531.417C339.002 545.917 296.002 490.917 301.002 512.917C306.002 534.917 276.37 578.683 270.686 582.417C253.186 593.917 278.978 620.478 313.686 640.417C337.186 653.917 263.186 627.917 252.186 613.417C243.12 601.467 232.42 613.417 214.686 613.417C201.186 613.417 185.686 606.917 185.686 606.917C185.686 606.917 158.186 644.417 175.186 667.917Z" fill="#D9D9D9"/>
<path d="M214.686 747.417C216.186 693.417 187.245 684.586 175.186 667.917C158.186 644.417 185.686 606.917 185.686 606.917C185.686 606.917 201.186 613.417 214.686 613.417C232.42 613.417 243.12 601.467 252.186 613.417C263.186 627.917 337.186 653.917 313.686 640.417C278.978 620.478 253.186 593.917 270.686 582.417C276.37 578.683 306.002 534.917 301.002 512.917C296.002 490.917 339.002 545.917 330.686 531.417C318.174 509.6 353.466 516.558 346.186 512.917C330.186 504.917 325.186 498.917 330.686 486.417C335.086 476.417 383.186 470.417 398.186 451.417C370.186 455.917 337.786 464.617 346.186 457.417C356.686 448.417 354.686 445.447 354.686 432.917C354.686 425.918 319.686 476.917 294.186 451.417C268.686 425.917 243.686 413.417 232.186 413.417C220.686 413.417 224.272 394.348 232.186 375.417C239.502 357.917 213.802 395.593 195.002 375.417C174.502 353.417 206.186 399.418 185.686 406.418C165.186 413.417 160.186 416.917 158.186 419.417C156.186 421.917 142.186 387.417 106.186 375.417C70.1862 363.417 38.6862 354.917 33.1862 308.417C33.1862 359.917 90.1862 379.417 80.6862 383.417C71.1862 387.417 54.6862 398.917 48.1862 395.917C65.6862 406.418 122.686 426.917 123.186 451.417C99.6863 474.417 115.186 522.417 106.186 512.917C93.4629 499.487 65.1862 510.917 62.1862 486.417C59.1862 461.917 62.6862 512.917 13.6862 512.917C-35.3138 512.917 92.6862 514.417 90.6862 531.417C88.6862 548.417 46.1862 548.302 33.1862 531.417C20.1863 514.533 62.1862 562.917 62.1862 564.917C62.1862 566.917 104.102 542.791 114.186 557.917C123.186 571.417 133.596 576.737 137.686 582.417C146.686 594.917 123.186 628.918 114.186 637.917C105.186 646.917 97.1862 682.417 114.186 695.417C114.186 655.298 151.245 629.374 143.186 644.417C135.686 658.417 146.088 674.126 175.186 695.417C195.686 710.417 205.02 727.084 214.686 747.417Z" stroke="black" stroke-width="5"/>
<path d="M599.502 120.917C595.728 120.917 578.002 114.419 583.502 84.9175C586.335 93.7508 589.702 109.417 596.502 109.417C605.002 109.417 611.574 110.558 617.501 123.417C620.729 130.419 618.122 103.32 640.501 97.9177C655.001 94.4177 639.001 46.9183 643.501 60.9174C646.019 68.7511 663.404 55.557 671.02 49.1795C671.798 48.4318 672.624 47.6778 673.501 46.9177C675.749 44.97 674.278 46.4508 671.02 49.1795C646.013 73.2105 670.911 90.8006 668.001 99.5291C665.699 106.437 662.145 106.596 661.378 106.545C663.131 106.741 679.845 108.737 686.001 114.419C691.298 119.308 698.001 136.118 698.001 155.419C698.001 164.809 744.001 126.419 741.001 130.419C727.585 148.307 727.138 147.419 730.001 155.419C747.001 202.919 736.001 171.029 722.728 171.029C714.126 171.029 714.228 168.529 706.228 173.029C698.228 177.529 710.728 210.529 700.728 195.029C696.858 189.029 693.728 180.529 689.728 189.029C685.728 197.529 660.728 199.029 650.228 199.029C639.728 199.029 639.729 208.529 633.729 237.529C631.729 223.529 624.229 217.029 624.229 210.529C624.229 204.029 625.91 203.029 629.729 197.029C636.729 186.029 626.258 181.194 617.501 171.029C605.775 157.417 613.502 135.417 613.502 135.417C613.502 135.417 610.051 120.917 599.502 120.917Z" fill="#D9D9D9"/>
<path d="M583.502 84.9175C578.002 114.419 595.728 120.917 599.502 120.917C610.051 120.917 613.502 135.417 613.502 135.417C613.502 135.417 605.775 157.417 617.501 171.029C626.258 181.194 636.729 186.029 629.729 197.029C625.91 203.029 624.229 204.029 624.229 210.529C624.229 217.029 631.729 223.529 633.729 237.529C639.729 208.529 639.728 199.029 650.228 199.029C660.728 199.029 685.728 197.529 689.728 189.029C693.728 180.529 696.858 189.029 700.728 195.029C710.728 210.529 698.228 177.529 706.228 173.029C714.228 168.529 714.126 171.029 722.728 171.029C736.001 171.029 747.001 202.919 730.001 155.419C727.138 147.419 727.585 148.307 741.001 130.419C744.001 126.419 698.001 164.809 698.001 155.419C698.001 136.119 691.298 119.308 686.001 114.419C679.501 108.419 661.228 106.529 661.228 106.529C661.228 106.529 665.408 107.309 668.001 99.5291C671.001 90.5291 644.437 72.1074 673.501 46.9177C681.001 40.4175 647.097 72.1028 643.501 60.9174C639.001 46.9183 655.001 94.4177 640.501 97.9177C618.122 103.32 620.729 130.419 617.501 123.417C611.574 110.558 605.002 109.417 596.502 109.417C589.702 109.417 586.335 93.7508 583.502 84.9175Z" stroke="black" stroke-width="5"/>
<path d="M263.502 507.917C263.502 542.988 235.072 571.417 200.002 571.417C164.932 571.417 136.502 542.988 136.502 507.917C136.502 472.847 164.932 444.417 200.002 444.417C235.072 444.417 263.502 472.847 263.502 507.917Z" fill="black"/>
<circle cx="656.502" cy="149.417" r="30" fill="black"/>
</svg>
